<?xml version="1.0" encoding="utf-8"?>
<!-- Generator: Adobe Illustrator 17.1.0, SVG Export Plug-In . SVG Version: 6.00 Build 0)  -->
<svg version="1.2" baseProfile="tiny" id="Layer_1" xmlns="http://www.w3.org/2000/svg" xmlns:xlink="http://www.w3.org/1999/xlink"
	 x="0px" y="0px" width="50px" height="50px" viewBox="0 0 50 50" xml:space="preserve">
<path fill="#DD8958" d="M10.157,12.177v11.431c0,1.111,0.643,2.662,1.428,3.448l12.198,12.198c0.785,0.785,2.071,0.785,2.856,0
	l12.614-12.614c0.785-0.785,0.785-2.071,0-2.856L27.056,11.585c-0.785-0.785-2.337-1.428-3.448-1.428H12.177
	C11.066,10.157,10.157,11.066,10.157,12.177z M20.6,15.185c1.495,1.495,1.495,3.919,0,5.415c-1.495,1.495-3.919,1.495-5.415,0
	c-1.495-1.495-1.495-3.919,0-5.415C16.68,13.69,19.105,13.69,20.6,15.185z"/>
<g>
</g>
<g>
</g>
<g>
</g>
<g>
</g>
<g>
</g>
<g>
</g>
</svg>
