<?xml version="1.0" encoding="utf-8"?>
<!-- Generator: Adobe Illustrator 17.1.0, SVG Export Plug-In . SVG Version: 6.00 Build 0)  -->
<svg version="1.2" baseProfile="tiny" id="Layer_1" xmlns="http://www.w3.org/2000/svg" xmlns:xlink="http://www.w3.org/1999/xlink"
	 x="0px" y="0px" width="612px" height="792px" viewBox="0 0 612 792" xml:space="preserve">
<g>
	<path fill-rule="evenodd" d="M101.534,396.525H67.222v18.597h12.553c0,6.973-3.625,17.973-12.134,17.973
		c-11.715,0-12.693-14.1-12.693-36.724c0-20.456,1.535-37.036,12.135-37.036c9.345,0,10.182,8.057,10.879,21.075h24.268
		c0-24.485-11.019-41.529-35.705-41.529c-30.544,0-38.633,30.837-38.633,60.124c0,31.922,10.601,54.549,36.542,54.549
		c7.53,0,16.177-3.565,21.756-10.696l3.995,8.367h11.349V396.525L101.534,396.525z"/>
	<path fill-rule="evenodd" d="M394.425,338.691c-29.569,0-38.633,29.133-38.633,57.336c0,28.202,9.064,57.336,38.633,57.336
		c29.567,0,38.634-29.134,38.634-57.336C433.059,367.824,423.992,338.691,394.425,338.691L394.425,338.691z M394.425,432.907
		c-11.576,0-11.576-15.184-11.576-36.879c0-21.695,0-36.882,11.576-36.882c11.577,0,11.577,15.188,11.577,36.882
		C406.002,417.723,406.002,432.907,394.425,432.907L394.425,432.907z"/>
	<path fill-rule="evenodd" d="M583.864,372.069c0-21.695-14.504-31.303-33.334-31.303h-37.38V451.1h25.105v-47.728h8.37
		l12.412,47.728h24.826l-16.599-53.617C577.03,393.453,583.864,383.691,583.864,372.069L583.864,372.069z M543.138,384.856h-4.882
		v-24.484h4.187c8.366,0,16.317,0.929,16.317,12.397C558.76,381.604,552.621,384.856,543.138,384.856L543.138,384.856z"/>
	<polygon fill-rule="evenodd" points="131.1,340.837 105.996,340.837 105.996,451.171 165.131,451.171 165.131,426.273 
		131.1,426.273 131.1,340.837 	"/>
	<polygon fill-rule="evenodd" points="311.061,340.854 301.993,393.063 292.929,340.885 251.75,340.885 251.75,451.217 
		277.03,451.217 277.03,366.917 277.308,366.917 293.068,451.217 303.839,451.217 303.839,451.186 310.92,451.186 326.681,366.886 
		326.959,366.886 326.959,451.186 352.24,451.186 352.24,340.854 311.061,340.854 	"/>
	<path fill-rule="evenodd" d="M483.088,340.837v76.552c0,8.331-2.497,15.431-10.779,15.489c-8.288-0.059-10.781-7.158-10.781-15.489
		v-76.552h-25.104v75.309c0,23.712,9.861,37.391,32.907,37.379c1.042,0,2.065,0,3.062-0.056c0.997,0.056,1.727,0,2.768,0
		c22.733,0,33.031-13.611,33.031-37.323v-75.309H483.088L483.088,340.837z"/>
	<path fill-rule="evenodd" d="M227.32,340.885h-37.996l-21.199,110.332h25.384l3.905-22.313h21.971h-0.155l3.905,22.313h25.384
		L227.32,340.885L227.32,340.885z M200.899,409.379l7.203-43.804l7.641,43.804H200.899L200.899,409.379z"/>
	<path fill-rule="evenodd" d="M580.083,340.707c1.819,0,3.343,1.437,3.343,3.32c0,1.918-1.523,3.353-3.343,3.353
		c-1.833,0-3.364-1.435-3.364-3.353C576.719,342.144,578.25,340.707,580.083,340.707L580.083,340.707z M580.083,346.889
		c1.542,0,2.736-1.231,2.736-2.862c0-1.597-1.194-2.83-2.736-2.83c-1.564,0-2.758,1.233-2.758,2.83
		C577.325,345.658,578.519,346.889,580.083,346.889L580.083,346.889z M578.78,342.089h1.507c0.927,0,1.365,0.366,1.365,1.117
		c0,0.703-0.448,0.998-1.025,1.06l1.115,1.722h-0.652l-1.062-1.677h-0.643v1.677h-0.604V342.089L578.78,342.089z M579.385,343.82
		h0.633c0.538,0,1.03-0.026,1.03-0.642c0-0.517-0.448-0.598-0.86-0.598h-0.803V343.82L579.385,343.82z"/>
</g>
</svg>
