<?xml version="1.0" encoding="utf-8"?>
<!-- Generator: Adobe Illustrator 17.1.0, SVG Export Plug-In . SVG Version: 6.00 Build 0)  -->
<svg version="1.2" baseProfile="tiny" id="Layer_1" xmlns="http://www.w3.org/2000/svg" xmlns:xlink="http://www.w3.org/1999/xlink"
	 x="0px" y="0px" width="841.89px" height="595.28px" viewBox="0 0 841.89 595.28" xml:space="preserve">
<path fill-rule="evenodd" fill="#010202" d="M463.074,252.988c25.154,0,45.67,20.516,45.67,45.67c0,9.49-2.922,18.319-7.91,25.636
	l13.087,17.211h-27.966l-1.794-2.36c-6.314,3.307-13.488,5.182-21.086,5.182c-23.148,0-42.366-17.374-45.285-39.747
	c-2.919,22.374-22.137,39.747-45.285,39.747c-25.154,0-45.67-20.516-45.67-45.67c0-25.154,20.516-45.67,45.67-45.67
	c20.138,0,37.301,13.15,43.346,31.302h-28.354c-3.787-3.95-9.11-6.414-14.992-6.414c-11.447,0-20.782,9.336-20.782,20.782
	c0,11.447,9.336,20.782,20.782,20.782c6.255,0,11.878-2.788,15.694-7.184h-12.871v-20.526h16.768h13.251h12.302
	c0.051,0.332,0.099,0.665,0.143,1C420.711,270.359,439.928,252.988,463.074,252.988L463.074,252.988z M454.351,299.941h27.967
	l1.319,1.734c0.145-0.986,0.221-1.992,0.221-3.017c0-11.447-9.336-20.782-20.782-20.782c-11.447,0-20.782,9.336-20.782,20.782
	c0,11.447,9.336,20.782,20.782,20.782c1.915,0,3.769-0.262,5.532-0.751L454.351,299.941L454.351,299.941z"/>
</svg>
