<?xml version="1.0" encoding="utf-8"?>
<!-- Generator: Adobe Illustrator 17.1.0, SVG Export Plug-In . SVG Version: 6.00 Build 0)  -->
<svg version="1.2" baseProfile="tiny" id="Layer_1" xmlns="http://www.w3.org/2000/svg" xmlns:xlink="http://www.w3.org/1999/xlink"
	 x="0px" y="0px" width="841.89px" height="595.28px" viewBox="0 0 841.89 595.28" xml:space="preserve">
<g>
	<polygon fill-rule="evenodd" fill="#FFFFFF" points="324,202.28 516.756,202.28 516.756,395.036 324,395.036 324,202.28 	"/>
	<path fill-rule="evenodd" d="M381.842,322.967c-5.473,0-10.71-3.067-14.099-7.253c-3.864-4.762-5.745-10.913-5.745-16.997
		c0-5.846,1.729-11.727,5.304-16.387c3.525-4.575,8.829-7.846,14.726-7.846c5.423,0,10.625,3.101,13.964,7.236
		c3.847,4.762,5.762,10.93,5.762,17.014c0,5.83-1.746,11.71-5.304,16.37C392.959,319.646,387.689,322.967,381.842,322.967
		L381.842,322.967z"/>
	<polygon fill-rule="evenodd" points="326.835,275.484 343.323,275.484 343.323,275.958 339.273,275.958 351.576,309.648 
		361.964,275.958 357.88,275.958 357.88,275.484 366.777,275.484 366.777,275.958 362.845,275.958 348.204,322.527 331.173,275.958 
		326.835,275.958 326.835,275.484 	"/>
	<path fill-rule="evenodd" d="M437.85,274.671v16.184h-0.373c-0.695-3.186-1.678-6.287-3.389-9.1
		c-2.034-3.288-5.27-6.982-9.49-6.982c-9.693,0-10.574,17.37-10.574,23.996c0,5.931,0.474,12.049,2.627,17.607
		c1.508,3.898,3.694,5.812,7.744,5.812c3.22,0,6.643-1.627,8.355-4.423c0.441-0.729,0.474-1.542,0.474-2.373v-0.118v-12.388h-4.237
		v-0.492h15.506v0.492h-3.627v18.709h-0.322c-0.915-1.525-2.356-2.525-4.203-2.525c-1.339,0-2.644,0.475-3.813,1.119l-1.051,0.576
		c-2.372,1.051-4.643,1.813-7.27,1.813c-12.032,0-18.438-12.828-18.438-23.47c0-7.779,2.966-16.099,9.27-20.963
		c2.83-2.186,6.253-3.796,9.896-3.796c1.424,0,2.83,0.441,4.152,0.966l0.966,0.373c1.101,0.407,2.305,0.797,3.491,0.797
		c1.474,0,2.796-0.966,3.932-1.813H437.85L437.85,274.671z"/>
	<path fill-rule="evenodd" d="M442.476,275.484h16.54v0.474h-4.389v35.909c0,5.626,5.795,9.049,10.862,9.049
		c5.457,0,10.049-3.796,10.049-9.371v-35.587h-5.185v-0.474h42.688v16.658h-0.322c-0.491-4.406-1.339-8.931-4.372-12.371
		c-3.067-3.474-7.236-3.813-11.524-3.813h-4.626v21.42c0.949,0.101,1.915,0.169,2.881,0.169c5.812,0,7.321-3.999,7.575-8.948h0.423
		v18.793h-0.423c-0.729-4.491-2.711-9.304-7.982-9.304c-0.83,0-1.644,0.051-2.474,0.119v22.911h6.931
		c3.593,0,7.168-1.559,9.71-4.067c2.169-2.135,3.677-4.914,4.203-7.914c0.288-1.678,0.424-3.389,0.509-5.084h0.373v17.539h-33.367
		v-0.475h3.881v-45.162h-8.202v35.723c0,7.388-7.015,10.659-13.591,10.659c-7.44,0-15.642-3.61-15.642-12.116v-34.266h-4.525
		V275.484L442.476,275.484z"/>
	<path fill-rule="evenodd" fill="#FFFFFF" d="M393.383,298.718c0-6.728-2.406-23.539-11.506-23.539
		c-9.134,0-11.506,16.794-11.506,23.539c0,6.744,2.389,23.555,11.506,23.555C390.976,322.273,393.383,305.445,393.383,298.718
		L393.383,298.718z"/>
</g>
</svg>
