<?xml version="1.0" encoding="utf-8"?>
<!-- Generator: Adobe Illustrator 17.1.0, SVG Export Plug-In . SVG Version: 6.00 Build 0)  -->
<svg version="1.2" baseProfile="tiny" id="Layer_1" xmlns="http://www.w3.org/2000/svg" xmlns:xlink="http://www.w3.org/1999/xlink"
	 x="0px" y="0px" width="612px" height="792px" viewBox="0 0 612 792" xml:space="preserve">
<g>
	<rect x="387.113" y="473.246" fill="#231F20" width="54.5" height="55.5"/>
	<rect x="278.613" y="473.246" fill="#231F20" width="54.5" height="55.5"/>
	<rect x="169.613" y="473.246" fill="#231F20" width="54.5" height="55.5"/>
	<path fill="#231F20" d="M265.197,488.329v-6.333h-26.334v6.333c0,0,8.693,0,9.167,0v25.001c-0.474,0-9.167,0-9.167,0v6.333h26.334
		v-6.333c0,0-9.525,0-10,0v-25.001C255.672,488.329,265.197,488.329,265.197,488.329z"/>
	<path fill="#FFFFFF" d="M316.447,502.413c0,0,5.666-0.5,5.666-10.667c0-10.167-9.333-9.667-9.333-9.667h-21.667v37.334h7.334v-14.5
		c0,0,7.5-0.167,11.833-0.167c4.333,0,4.333,6.333,4.333,6.333v8.167h7.5c0,0,0-0.833,0-8.667S316.447,502.413,316.447,502.413z
		 M308.78,498.746c-4.667,0-10.333,0.167-10.333,0.167v-10.334h10.5c0,0,5.666-0.833,5.666,4.5
		C314.613,497.746,313.447,498.746,308.78,498.746z"/>
	<polygon fill="#231F20" points="343.113,482.079 343.113,488.246 348.28,488.246 348.28,513.413 343.113,513.413 343.113,519.579 
		374.947,519.579 374.947,507.413 368.613,507.413 368.613,513.413 355.113,513.413 355.113,503.246 365.113,503.246 
		365.113,497.079 355.113,497.079 355.113,488.246 368.113,488.246 368.113,494.246 374.947,494.246 374.947,482.079 	"/>
	<path fill="#FFFFFF" d="M432.113,505.913v-10.5c0-15-16.666-13.167-16.666-13.167H399.28v37.833c0,0,6.167-0.166,19.833-0.166
		C432.779,519.913,432.113,505.913,432.113,505.913z M424.613,506.079c0,0-0.166,7.334-5.833,7.334c-5.667,0-11.833,0-11.833,0v-25
		h11.333c0,0,6.333-0.501,6.333,8C424.613,504.913,424.613,506.079,424.613,506.079z"/>
	<polygon fill="#FFFFFF" points="174.28,482.246 181.78,482.246 186.947,510.746 193.613,482.246 201.78,482.413 208.447,511.246 
		213.447,482.246 220.613,482.246 212.947,519.579 203.613,519.579 197.613,492.413 191.113,519.746 181.947,519.746 	"/>
</g>
</svg>
